<svg width="230" height="79" viewBox="0 0 230 79" fill="none" xmlns="http://www.w3.org/2000/svg">
<g clip-path="url(#clip0_2_25)">
<path d="M61.7206 37.3025C55.5485 34.3968 47.4159 35.7044 43.4585 38.7554C39.5012 35.7044 31.3686 34.3968 25.1965 37.3025C20.1136 39.6998 17.2817 44.5669 17.2817 50.9959C17.2817 62.074 27.5564 73.7333 41.6795 78.7094C42.2604 78.891 42.8413 79 43.4222 79C44.0031 79 44.6203 78.891 45.1649 78.7094C59.3244 73.7333 69.5627 62.1103 69.5627 50.9959C69.599 44.5669 66.8034 39.6998 61.7206 37.3025Z" fill="#AE0FEA"/>
<path d="M41.0261 14.5651C40.5541 10.497 39.0656 6.75586 36.8872 4.06805C34.5273 1.12598 31.5865 -0.290572 28.6094 0.0363243C22.6915 0.762761 18.8793 8.24506 19.9685 17.1076C20.4405 21.1756 21.9291 24.9168 24.1074 27.6046C26.2495 30.2561 28.8272 31.6726 31.5139 31.6726C31.8043 31.6726 32.1311 31.6726 32.4216 31.6363C35.3987 31.2731 37.9401 29.2028 39.5376 25.7522C40.9898 22.6285 41.5344 18.6694 41.0261 14.5651Z" fill="#AE0FEA"/>
<path d="M17.2092 22.9191C13.6512 16.7807 7.62434 13.8386 3.44913 16.2722C-0.726088 18.6694 -1.19807 25.3889 2.32364 31.5273C5.0466 36.2128 9.18551 39.0459 12.8524 39.0459C13.9779 39.0459 15.0671 38.7917 16.0837 38.2105C18.2258 36.9756 19.4602 34.6147 19.5328 31.5637C19.678 28.7669 18.843 25.7158 17.2092 22.9191Z" fill="#AE0FEA"/>
<path d="M58.3078 0.0362971C55.3307 -0.326921 52.3899 1.08963 49.9937 4.06802C47.8153 6.75584 46.3631 10.497 45.8548 14.565C45.3828 18.6331 45.8911 22.5922 47.3796 25.7522C48.9771 29.2027 51.5185 31.2731 54.4956 31.6363C54.7861 31.6726 55.1129 31.6726 55.4033 31.6726C58.09 31.6726 60.6677 30.2561 62.8098 27.6046C64.9881 24.9168 66.4404 21.1756 66.9487 17.1076C68.0016 8.24503 64.1894 0.762734 58.3078 0.0362971Z" fill="#AE0FEA"/>
<path d="M83.4317 16.2358C79.2565 13.8386 73.2297 16.7443 69.6716 22.8827C68.0742 25.6795 67.2391 28.7305 67.3117 31.4547C67.4207 34.5057 68.6551 36.8666 70.7608 38.1016C71.7411 38.6827 72.8303 38.937 73.9921 38.937C77.659 38.937 81.8342 36.1402 84.5209 31.4183C88.0789 25.3526 87.5706 18.6694 83.4317 16.2358Z" fill="#AE0FEA"/>
<path d="M112.404 7.04639H120.101L132.845 36.3218H124.639L122.57 31.2367H110.298L108.265 36.3218H100.06L112.404 7.04639ZM120.028 25.0257L116.289 15.9089L112.658 25.0257H120.028Z" fill="black"/>
<path d="M133.425 25.3889C133.425 18.5241 137.237 13.8749 142.901 13.8749C145.697 13.8749 148.747 15.4367 150.199 17.7977V5.44824H157.315V36.3581H150.308V32.9076C148.855 35.2685 145.733 36.9756 142.938 36.9756C137.237 36.9393 133.425 32.2901 133.425 25.3889ZM150.235 25.3889C150.235 22.1926 148.311 20.0496 145.552 20.0496C142.756 20.0496 140.868 22.1926 140.868 25.3889C140.868 28.6216 142.756 30.7646 145.552 30.7646C148.311 30.7646 150.235 28.6579 150.235 25.3889Z" fill="black"/>
<path d="M160.728 25.389C160.728 18.5968 165.847 13.8749 173.253 13.8749C180.587 13.8749 185.743 18.5968 185.743 25.389C185.743 32.2175 180.624 36.9393 173.253 36.9393C165.883 36.9393 160.728 32.2175 160.728 25.389ZM178.336 25.389C178.336 22.229 176.267 20.0497 173.253 20.0497C170.204 20.0497 168.171 22.229 168.171 25.389C168.171 28.5853 170.204 30.8009 173.253 30.8009C176.267 30.8009 178.336 28.6216 178.336 25.389Z" fill="black"/>
<path d="M191.443 28.8395V20.4855H187.558V14.4924H191.443V8.17236H198.559V14.456H205.348V20.4855H198.559V28.2583C198.559 30.0381 199.575 30.7282 201.318 30.7282C202.371 30.7282 203.751 30.5829 205.421 30.0018V36.1039C203.642 36.6487 201.718 36.9029 200.12 36.9029C194.384 36.9393 191.334 34.0698 191.443 28.8395Z" fill="black"/>
<path d="M229.855 27.3503H214.969C215.732 30.2924 217.946 31.2005 220.96 31.2005C222.92 31.2005 225.099 30.8009 227.713 29.8929L229.31 34.9416C226.261 36.3945 223.138 36.9393 220.197 36.9393C212.864 36.9393 207.345 32.726 207.345 25.389C207.345 18.5968 212.174 13.8749 219.144 13.8749C225.716 13.8749 230 18.2336 230 24.9168C230 25.6432 229.964 26.5876 229.855 27.3503ZM214.824 23.3913H223.247C222.993 21.0667 221.722 19.2869 219.072 19.2869C216.821 19.2869 215.223 20.7398 214.824 23.3913Z" fill="black"/>
<path d="M100.024 60.4032V50.3784H105.288V59.3135C105.288 61.2023 106.522 62.4372 108.374 62.4372C110.335 62.4372 111.678 61.057 111.678 59.0593V50.3784H116.906V66.5416H111.642V64.4712C110.371 65.9967 108.483 66.9774 106.159 66.9774C102.456 66.9774 100.024 64.3623 100.024 60.4032Z" fill="black"/>
<path d="M120.464 50.3784H125.729V52.2671C126.89 50.8506 128.597 49.9062 130.775 49.9062C133.28 49.9062 135.204 51.1411 136.148 53.1388C137.347 51.2501 139.271 49.9062 141.885 49.9062C145.552 49.9062 147.948 52.485 147.948 56.4078V66.5416H142.684V57.5338C142.684 55.645 141.558 54.4827 139.888 54.4827C138.073 54.4827 136.838 55.7903 136.838 57.8607V66.5416H131.574V57.6064C131.574 55.7177 130.521 54.4827 128.778 54.4827C126.963 54.4827 125.729 55.863 125.729 57.8607V66.5416H120.464V50.3784Z" fill="black"/>
<path d="M156.153 43.6588H170.53C177.283 43.6588 181.858 47.5089 181.858 53.2841C181.858 59.1682 177.283 63.1636 170.458 63.1636H163.814V72.9705H156.189V43.6588H156.153ZM170.058 56.88C172.491 56.88 173.979 55.5724 173.979 53.4294C173.979 51.2501 172.455 49.9425 170.058 49.9425H163.777V56.88H170.058Z" fill="black"/>
<path d="M206.401 63.9627H191.515C192.278 66.9048 194.493 67.8128 197.506 67.8128C199.466 67.8128 201.645 67.4133 204.259 66.5052L205.856 71.554C202.807 73.0068 199.684 73.5517 196.744 73.5517C189.41 73.5517 183.891 69.3383 183.891 62.0013C183.891 55.2091 188.72 50.4873 195.691 50.4873C202.262 50.4873 206.546 54.8459 206.546 61.5291C206.546 62.2193 206.51 63.1999 206.401 63.9627ZM191.37 60.0036H199.793C199.539 57.679 198.268 55.8993 195.618 55.8993C193.367 55.8993 191.77 57.3521 191.37 60.0036Z" fill="black"/>
<path d="M212.282 65.4519V57.0979H208.398V51.0685H212.282V44.7848H219.398V51.0685H226.188V57.0979H219.398V64.8708C219.398 66.6505 220.415 67.3406 222.158 67.3406C223.211 67.3406 224.59 67.1954 226.26 66.6142V72.7163C224.481 73.2611 222.557 73.5154 220.96 73.5154C215.26 73.5517 212.21 70.6459 212.282 65.4519Z" fill="black"/>
</g>
<defs>
<clipPath id="clip0_2_25">
<rect width="230" height="79" fill="white"/>
</clipPath>
</defs>
</svg>
